<svg xmlns="http://www.w3.org/2000/svg" viewBox="0 0 3000 3000"><defs><style>.cls-1{fill:#12233d;}.cls-2{font-size:435.62px;fill:#1b2f4c;font-family:MovaRegular, Mova;}.cls-3,.cls-4{font-family:MyriadPro-Regular, Myriad Pro;}.cls-4{letter-spacing:0em;}</style></defs><g id="Camada_2" data-name="Camada 2"><rect class="cls-1" x="-52.5" y="-52.5" width="3105" height="3105"/></g><g id="Camada_7" data-name="Camada 7"><text class="cls-2" transform="translate(46.78 503.56)">B<tspan class="cls-3" x="257.01" y="0">.</tspan><tspan x="347.18" y="0">FIT b</tspan><tspan class="cls-3" x="1317.28" y="0">.</tspan><tspan x="1407.45" y="0">fit B</tspan><tspan class="cls-3" x="2174.56" y="0">.</tspan><tspan x="2264.72" y="0">FIT</tspan><tspan x="0" y="461">B</tspan><tspan class="cls-3" x="257.01" y="461">.</tspan><tspan x="347.18" y="461">FIT b</tspan><tspan class="cls-3" x="1317.28" y="461">.</tspan><tspan x="1407.45" y="461">fit B</tspan><tspan class="cls-3" x="2174.56" y="461">.</tspan><tspan x="2264.72" y="461">FIT</tspan><tspan x="0" y="922">B</tspan><tspan class="cls-3" x="257.01" y="922">.</tspan><tspan x="347.18" y="922">FIT b</tspan><tspan class="cls-3" x="1317.28" y="922">.</tspan><tspan x="1407.45" y="922">fit B</tspan><tspan class="cls-3" x="2174.56" y="922">.</tspan><tspan x="2264.72" y="922">FIT</tspan><tspan x="0" y="1383">b</tspan><tspan class="cls-3" x="230.88" y="1383">.</tspan><tspan x="321.04" y="1383">fit B</tspan><tspan class="cls-4" x="1088.15" y="1383">.</tspan><tspan x="1178.32" y="1383">FITb</tspan><tspan class="cls-3" x="2022.09" y="1383">.</tspan><tspan x="2112.26" y="1383">fit B</tspan><tspan class="cls-3" x="2879.36" y="1383">.</tspan><tspan x="2969.53" y="1383">FIT</tspan><tspan x="0" y="1844">b</tspan><tspan class="cls-3" x="230.88" y="1844">.</tspan><tspan x="321.04" y="1844">fit B</tspan><tspan class="cls-4" x="1088.15" y="1844">.</tspan><tspan x="1178.32" y="1844">FIT b</tspan><tspan class="cls-3" x="2148.42" y="1844">.</tspan><tspan x="2238.59" y="1844">fit</tspan><tspan x="0" y="2305">B</tspan><tspan class="cls-3" x="257.01" y="2305">.</tspan><tspan x="347.18" y="2305">FIT b</tspan><tspan class="cls-3" x="1317.28" y="2305">.</tspan><tspan x="1407.45" y="2305">fit B</tspan><tspan class="cls-3" x="2174.56" y="2305">.</tspan><tspan x="2264.72" y="2305">FIT</tspan></text></g></svg>