<svg id="Camada_4" data-name="Camada 4" xmlns="http://www.w3.org/2000/svg" viewBox="0 0 2216.28 1470.72"><defs><style>.cls-1{fill:#1ed29e;}.cls-2{fill:#fefffe;}.cls-3{font-size:300px;fill:#20d19e;font-family:CenturyGothic-Italic, Century Gothic;font-style:italic;}</style></defs><text x="-367.95" y="-710.88"/><polygon class="cls-1" points="2187.89 1093.86 28.38 1063.86 28.38 1123.86 2187.89 1093.86"/><path class="cls-2" d="M873,1270.12q47.36,68.79,47.35,153.33,0,113.9-81.17,195t-195.05,81.17H368V910.48h197.3q81.16,0,139.23,58.06t58.06,139.24a193.05,193.05,0,0,1-27,99.21q33.81,1.14,75.53,16.91T873,1270.12Zm-347.24-201.8v117.25h39.46q18,0,28.74-21.42a97.22,97.22,0,0,0,10.72-44q0-21.4-10.15-36.64t-29.31-15.22Zm201.8,439.13q34.93-34.38,34.95-84a60.85,60.85,0,0,0-6.2-26.49q-6.21-12.95-19.16-25.37T700,1351.3q-24.26-7.87-55.81-7.89H525.79v198.42H644.16Q692.63,1541.83,727.59,1507.45Z" transform="translate(-367.95 -710.88)"/><path class="cls-2" d="M1731.72,1118.3l261.49,581.37H1863.33l-97.62-213.55h.87l-47.93-106.33-47.94,106.33,55.78,122H1615.8l-1.75,4.36L1574,1699.67H1444.09l261.48-581.37,12.2-28.76Z" transform="translate(-367.95 -710.88)"/><path class="cls-2" d="M2534.06,1345.1q50.14-70.45,50.17-158.4,0-113.86-81.18-195.05-75-75-177.83-80.68l.19-.49H970.69v789.19h410.38l63.14-157.84H1128.53V1384h173.62l63.14-157.84H1128.53V1068.32H2308q48.45,0,83.43,35t34.95,83.43q0,48.48-34.95,83.42t-83.43,35H2189.63v-78.28h1.13V1125.55h-159v574.12h157.84V1411.05l201.81,288.62h192.79l-178.14-254.79Q2483.88,1415.57,2534.06,1345.1Z" transform="translate(-367.95 -710.88)"/><text class="cls-3" transform="translate(1136.18 1378.73)">FITNESS</text><text x="-367.95" y="-710.88"/></svg>